<?xml version="1.0" encoding="utf-8" standalone="no"?>
<!DOCTYPE svg PUBLIC "-//W3C//DTD SVG 1.1//EN"
  "http://www.w3.org/Graphics/SVG/1.1/DTD/svg11.dtd">
<!-- Created with matplotlib (http://matplotlib.org/) -->
<svg height="345.6pt" version="1.1" viewBox="0 0 460.8 345.6" width="460.8pt" xmlns="http://www.w3.org/2000/svg" xmlns:xlink="http://www.w3.org/1999/xlink">
 <defs>
  <style type="text/css">
*{stroke-linecap:butt;stroke-linejoin:round;}
  </style>
 </defs>
 <g id="figure_1">
  <g id="patch_1">
   <path d="M 0 345.6 
L 460.8 345.6 
L 460.8 0 
L 0 0 
z
" style="fill:#ffffff;"/>
  </g>
  <g id="axes_1">
   <g id="patch_2">
    <path d="M 57.6 307.584 
L 414.72 307.584 
L 414.72 41.472 
L 57.6 41.472 
z
" style="fill:#ffffff;"/>
   </g>
   <g id="PathCollection_1">
    <defs>
     <path d="M 0 0.5 
C 0.132602 0.5 0.25979 0.447317 0.353553 0.353553 
C 0.447317 0.25979 0.5 0.132602 0.5 0 
C 0.5 -0.132602 0.447317 -0.25979 0.353553 -0.353553 
C 0.25979 -0.447317 0.132602 -0.5 0 -0.5 
C -0.132602 -0.5 -0.25979 -0.447317 -0.353553 -0.353553 
C -0.447317 -0.25979 -0.5 -0.132602 -0.5 0 
C -0.5 0.132602 -0.447317 0.25979 -0.353553 0.353553 
C -0.25979 0.447317 -0.132602 0.5 0 0.5 
z
" id="m51e6bbd4cf" style="stroke:#ff0000;"/>
    </defs>
    <g clip-path="url(#pf5614bef8e)">
     <use style="fill:#ff0000;stroke:#ff0000;" x="224.176504" xlink:href="#m51e6bbd4cf" y="165.182385"/>
     <use style="fill:#ff0000;stroke:#ff0000;" x="246.699263" xlink:href="#m51e6bbd4cf" y="53.2583"/>
     <use style="fill:#ff0000;stroke:#ff0000;" x="225.925682" xlink:href="#m51e6bbd4cf" y="135.396454"/>
     <use style="fill:#ff0000;stroke:#ff0000;" x="229.319065" xlink:href="#m51e6bbd4cf" y="108.98355"/>
     <use style="fill:#ff0000;stroke:#ff0000;" x="236.585351" xlink:href="#m51e6bbd4cf" y="48.254644"/>
     <use style="fill:#ff0000;stroke:#ff0000;" x="277.733164" xlink:href="#m51e6bbd4cf" y="249.452307"/>
     <use style="fill:#ff0000;stroke:#ff0000;" x="241.78563" xlink:href="#m51e6bbd4cf" y="113.814823"/>
     <use style="fill:#ff0000;stroke:#ff0000;" x="231.484303" xlink:href="#m51e6bbd4cf" y="61.580008"/>
     <use style="fill:#ff0000;stroke:#ff0000;" x="231.593672" xlink:href="#m51e6bbd4cf" y="100.620834"/>
     <use style="fill:#ff0000;stroke:#ff0000;" x="282.884556" xlink:href="#m51e6bbd4cf" y="254.439012"/>
     <use style="fill:#ff0000;stroke:#ff0000;" x="186.830318" xlink:href="#m51e6bbd4cf" y="196.23429"/>
     <use style="fill:#ff0000;stroke:#ff0000;" x="158.411212" xlink:href="#m51e6bbd4cf" y="242.338895"/>
     <use style="fill:#ff0000;stroke:#ff0000;" x="203.966184" xlink:href="#m51e6bbd4cf" y="42.062303"/>
     <use style="fill:#ff0000;stroke:#ff0000;" x="223.625464" xlink:href="#m51e6bbd4cf" y="47.149539"/>
     <use style="fill:#ff0000;stroke:#ff0000;" x="208.97509" xlink:href="#m51e6bbd4cf" y="141.146799"/>
     <use style="fill:#ff0000;stroke:#ff0000;" x="230.76322" xlink:href="#m51e6bbd4cf" y="156.874142"/>
     <use style="fill:#ff0000;stroke:#ff0000;" x="214.591964" xlink:href="#m51e6bbd4cf" y="139.368427"/>
     <use style="fill:#ff0000;stroke:#ff0000;" x="177.170924" xlink:href="#m51e6bbd4cf" y="202.960243"/>
     <use style="fill:#ff0000;stroke:#ff0000;" x="239.491869" xlink:href="#m51e6bbd4cf" y="158.933085"/>
     <use style="fill:#ff0000;stroke:#ff0000;" x="293.377431" xlink:href="#m51e6bbd4cf" y="248.579258"/>
     <use style="fill:#ff0000;stroke:#ff0000;" x="259.536825" xlink:href="#m51e6bbd4cf" y="156.901127"/>
     <use style="fill:#ff0000;stroke:#ff0000;" x="258.864622" xlink:href="#m51e6bbd4cf" y="156.489368"/>
     <use style="fill:#ff0000;stroke:#ff0000;" x="258.864622" xlink:href="#m51e6bbd4cf" y="156.489368"/>
     <use style="fill:#ff0000;stroke:#ff0000;" x="258.864622" xlink:href="#m51e6bbd4cf" y="156.489368"/>
     <use style="fill:#ff0000;stroke:#ff0000;" x="258.864622" xlink:href="#m51e6bbd4cf" y="156.489368"/>
     <use style="fill:#ff0000;stroke:#ff0000;" x="258.864622" xlink:href="#m51e6bbd4cf" y="156.489368"/>
     <use style="fill:#ff0000;stroke:#ff0000;" x="258.864622" xlink:href="#m51e6bbd4cf" y="156.489368"/>
     <use style="fill:#ff0000;stroke:#ff0000;" x="258.864622" xlink:href="#m51e6bbd4cf" y="156.489368"/>
     <use style="fill:#ff0000;stroke:#ff0000;" x="258.864622" xlink:href="#m51e6bbd4cf" y="156.489368"/>
     <use style="fill:#ff0000;stroke:#ff0000;" x="258.864622" xlink:href="#m51e6bbd4cf" y="156.489368"/>
     <use style="fill:#ff0000;stroke:#ff0000;" x="258.864622" xlink:href="#m51e6bbd4cf" y="156.489368"/>
     <use style="fill:#ff0000;stroke:#ff0000;" x="258.864622" xlink:href="#m51e6bbd4cf" y="156.489368"/>
     <use style="fill:#ff0000;stroke:#ff0000;" x="258.864622" xlink:href="#m51e6bbd4cf" y="156.489368"/>
     <use style="fill:#ff0000;stroke:#ff0000;" x="258.864622" xlink:href="#m51e6bbd4cf" y="156.489368"/>
     <use style="fill:#ff0000;stroke:#ff0000;" x="258.864622" xlink:href="#m51e6bbd4cf" y="156.489368"/>
     <use style="fill:#ff0000;stroke:#ff0000;" x="258.864622" xlink:href="#m51e6bbd4cf" y="156.489368"/>
     <use style="fill:#ff0000;stroke:#ff0000;" x="258.864622" xlink:href="#m51e6bbd4cf" y="156.489368"/>
     <use style="fill:#ff0000;stroke:#ff0000;" x="258.864622" xlink:href="#m51e6bbd4cf" y="156.489368"/>
     <use style="fill:#ff0000;stroke:#ff0000;" x="258.864622" xlink:href="#m51e6bbd4cf" y="156.489368"/>
     <use style="fill:#ff0000;stroke:#ff0000;" x="258.864622" xlink:href="#m51e6bbd4cf" y="156.489368"/>
     <use style="fill:#ff0000;stroke:#ff0000;" x="258.864622" xlink:href="#m51e6bbd4cf" y="156.489368"/>
     <use style="fill:#ff0000;stroke:#ff0000;" x="258.864622" xlink:href="#m51e6bbd4cf" y="156.489368"/>
     <use style="fill:#ff0000;stroke:#ff0000;" x="258.864622" xlink:href="#m51e6bbd4cf" y="156.489368"/>
     <use style="fill:#ff0000;stroke:#ff0000;" x="258.864622" xlink:href="#m51e6bbd4cf" y="156.489368"/>
     <use style="fill:#ff0000;stroke:#ff0000;" x="258.864622" xlink:href="#m51e6bbd4cf" y="156.489368"/>
     <use style="fill:#ff0000;stroke:#ff0000;" x="258.864622" xlink:href="#m51e6bbd4cf" y="156.489368"/>
     <use style="fill:#ff0000;stroke:#ff0000;" x="258.864622" xlink:href="#m51e6bbd4cf" y="156.489368"/>
     <use style="fill:#ff0000;stroke:#ff0000;" x="258.864622" xlink:href="#m51e6bbd4cf" y="156.489368"/>
     <use style="fill:#ff0000;stroke:#ff0000;" x="258.864622" xlink:href="#m51e6bbd4cf" y="156.489368"/>
     <use style="fill:#ff0000;stroke:#ff0000;" x="258.864622" xlink:href="#m51e6bbd4cf" y="156.489368"/>
     <use style="fill:#ff0000;stroke:#ff0000;" x="183.750694" xlink:href="#m51e6bbd4cf" y="146.293464"/>
     <use style="fill:#ff0000;stroke:#ff0000;" x="277.052301" xlink:href="#m51e6bbd4cf" y="72.986606"/>
     <use style="fill:#ff0000;stroke:#ff0000;" x="214.563284" xlink:href="#m51e6bbd4cf" y="121.700103"/>
     <use style="fill:#ff0000;stroke:#ff0000;" x="248.070486" xlink:href="#m51e6bbd4cf" y="107.817133"/>
     <use style="fill:#ff0000;stroke:#ff0000;" x="267.878173" xlink:href="#m51e6bbd4cf" y="74.124461"/>
     <use style="fill:#ff0000;stroke:#ff0000;" x="269.707985" xlink:href="#m51e6bbd4cf" y="211.611891"/>
     <use style="fill:#ff0000;stroke:#ff0000;" x="202.280547" xlink:href="#m51e6bbd4cf" y="120.079679"/>
     <use style="fill:#ff0000;stroke:#ff0000;" x="266.536058" xlink:href="#m51e6bbd4cf" y="77.09421"/>
     <use style="fill:#ff0000;stroke:#ff0000;" x="240.467559" xlink:href="#m51e6bbd4cf" y="101.448735"/>
     <use style="fill:#ff0000;stroke:#ff0000;" x="292.37267" xlink:href="#m51e6bbd4cf" y="228.72906"/>
     <use style="fill:#ff0000;stroke:#ff0000;" x="171.4335" xlink:href="#m51e6bbd4cf" y="169.63794"/>
     <use style="fill:#ff0000;stroke:#ff0000;" x="169.615695" xlink:href="#m51e6bbd4cf" y="204.418619"/>
     <use style="fill:#ff0000;stroke:#ff0000;" x="287.851427" xlink:href="#m51e6bbd4cf" y="58.474105"/>
     <use style="fill:#ff0000;stroke:#ff0000;" x="286.566215" xlink:href="#m51e6bbd4cf" y="58.779778"/>
     <use style="fill:#ff0000;stroke:#ff0000;" x="209.022319" xlink:href="#m51e6bbd4cf" y="126.122201"/>
     <use style="fill:#ff0000;stroke:#ff0000;" x="194.883453" xlink:href="#m51e6bbd4cf" y="138.803302"/>
     <use style="fill:#ff0000;stroke:#ff0000;" x="182.460791" xlink:href="#m51e6bbd4cf" y="139.37884"/>
     <use style="fill:#ff0000;stroke:#ff0000;" x="167.516272" xlink:href="#m51e6bbd4cf" y="171.14502"/>
     <use style="fill:#ff0000;stroke:#ff0000;" x="217.409827" xlink:href="#m51e6bbd4cf" y="143.656878"/>
     <use style="fill:#ff0000;stroke:#ff0000;" x="322.681159" xlink:href="#m51e6bbd4cf" y="239.611869"/>
     <use style="fill:#ff0000;stroke:#ff0000;" x="191.022339" xlink:href="#m51e6bbd4cf" y="147.021723"/>
     <use style="fill:#ff0000;stroke:#ff0000;" x="193.633017" xlink:href="#m51e6bbd4cf" y="147.948614"/>
     <use style="fill:#ff0000;stroke:#ff0000;" x="193.633017" xlink:href="#m51e6bbd4cf" y="147.948614"/>
     <use style="fill:#ff0000;stroke:#ff0000;" x="193.633017" xlink:href="#m51e6bbd4cf" y="147.948614"/>
     <use style="fill:#ff0000;stroke:#ff0000;" x="193.633017" xlink:href="#m51e6bbd4cf" y="147.948614"/>
     <use style="fill:#ff0000;stroke:#ff0000;" x="193.633017" xlink:href="#m51e6bbd4cf" y="147.948614"/>
     <use style="fill:#ff0000;stroke:#ff0000;" x="193.633017" xlink:href="#m51e6bbd4cf" y="147.948614"/>
     <use style="fill:#ff0000;stroke:#ff0000;" x="193.633017" xlink:href="#m51e6bbd4cf" y="147.948614"/>
     <use style="fill:#ff0000;stroke:#ff0000;" x="193.633017" xlink:href="#m51e6bbd4cf" y="147.948614"/>
     <use style="fill:#ff0000;stroke:#ff0000;" x="193.633017" xlink:href="#m51e6bbd4cf" y="147.948614"/>
     <use style="fill:#ff0000;stroke:#ff0000;" x="193.633017" xlink:href="#m51e6bbd4cf" y="147.948614"/>
     <use style="fill:#ff0000;stroke:#ff0000;" x="193.633017" xlink:href="#m51e6bbd4cf" y="147.948614"/>
     <use style="fill:#ff0000;stroke:#ff0000;" x="193.633017" xlink:href="#m51e6bbd4cf" y="147.948614"/>
     <use style="fill:#ff0000;stroke:#ff0000;" x="193.633017" xlink:href="#m51e6bbd4cf" y="147.948614"/>
     <use style="fill:#ff0000;stroke:#ff0000;" x="193.633017" xlink:href="#m51e6bbd4cf" y="147.948614"/>
     <use style="fill:#ff0000;stroke:#ff0000;" x="193.633017" xlink:href="#m51e6bbd4cf" y="147.948614"/>
     <use style="fill:#ff0000;stroke:#ff0000;" x="193.633017" xlink:href="#m51e6bbd4cf" y="147.948614"/>
     <use style="fill:#ff0000;stroke:#ff0000;" x="193.633017" xlink:href="#m51e6bbd4cf" y="147.948614"/>
     <use style="fill:#ff0000;stroke:#ff0000;" x="193.633017" xlink:href="#m51e6bbd4cf" y="147.948614"/>
     <use style="fill:#ff0000;stroke:#ff0000;" x="193.633017" xlink:href="#m51e6bbd4cf" y="147.948614"/>
     <use style="fill:#ff0000;stroke:#ff0000;" x="193.633017" xlink:href="#m51e6bbd4cf" y="147.948614"/>
     <use style="fill:#ff0000;stroke:#ff0000;" x="193.633017" xlink:href="#m51e6bbd4cf" y="147.948614"/>
     <use style="fill:#ff0000;stroke:#ff0000;" x="193.633017" xlink:href="#m51e6bbd4cf" y="147.948614"/>
     <use style="fill:#ff0000;stroke:#ff0000;" x="193.633017" xlink:href="#m51e6bbd4cf" y="147.948614"/>
     <use style="fill:#ff0000;stroke:#ff0000;" x="193.633017" xlink:href="#m51e6bbd4cf" y="147.948614"/>
     <use style="fill:#ff0000;stroke:#ff0000;" x="193.633017" xlink:href="#m51e6bbd4cf" y="147.948614"/>
     <use style="fill:#ff0000;stroke:#ff0000;" x="193.633017" xlink:href="#m51e6bbd4cf" y="147.948614"/>
     <use style="fill:#ff0000;stroke:#ff0000;" x="193.633017" xlink:href="#m51e6bbd4cf" y="147.948614"/>
     <use style="fill:#ff0000;stroke:#ff0000;" x="193.633017" xlink:href="#m51e6bbd4cf" y="147.948614"/>
     <use style="fill:#ff0000;stroke:#ff0000;" x="193.633017" xlink:href="#m51e6bbd4cf" y="147.948614"/>
     <use style="fill:#ff0000;stroke:#ff0000;" x="137.675357" xlink:href="#m51e6bbd4cf" y="191.590825"/>
     <use style="fill:#ff0000;stroke:#ff0000;" x="227.187784" xlink:href="#m51e6bbd4cf" y="148.091613"/>
     <use style="fill:#ff0000;stroke:#ff0000;" x="174.330184" xlink:href="#m51e6bbd4cf" y="165.066832"/>
     <use style="fill:#ff0000;stroke:#ff0000;" x="196.903316" xlink:href="#m51e6bbd4cf" y="153.28629"/>
     <use style="fill:#ff0000;stroke:#ff0000;" x="213.445354" xlink:href="#m51e6bbd4cf" y="140.536659"/>
     <use style="fill:#ff0000;stroke:#ff0000;" x="274.002505" xlink:href="#m51e6bbd4cf" y="208.259169"/>
     <use style="fill:#ff0000;stroke:#ff0000;" x="158.818968" xlink:href="#m51e6bbd4cf" y="153.763611"/>
     <use style="fill:#ff0000;stroke:#ff0000;" x="212.302104" xlink:href="#m51e6bbd4cf" y="141.887117"/>
     <use style="fill:#ff0000;stroke:#ff0000;" x="180.756778" xlink:href="#m51e6bbd4cf" y="149.31442"/>
     <use style="fill:#ff0000;stroke:#ff0000;" x="293.488852" xlink:href="#m51e6bbd4cf" y="230.817008"/>
     <use style="fill:#ff0000;stroke:#ff0000;" x="140.236032" xlink:href="#m51e6bbd4cf" y="206.324126"/>
     <use style="fill:#ff0000;stroke:#ff0000;" x="156.582706" xlink:href="#m51e6bbd4cf" y="236.998338"/>
     <use style="fill:#ff0000;stroke:#ff0000;" x="244.974164" xlink:href="#m51e6bbd4cf" y="113.909709"/>
     <use style="fill:#ff0000;stroke:#ff0000;" x="227.10396" xlink:href="#m51e6bbd4cf" y="116.100363"/>
     <use style="fill:#ff0000;stroke:#ff0000;" x="167.69212" xlink:href="#m51e6bbd4cf" y="159.372729"/>
     <use style="fill:#ff0000;stroke:#ff0000;" x="154.371472" xlink:href="#m51e6bbd4cf" y="192.726092"/>
     <use style="fill:#ff0000;stroke:#ff0000;" x="162.843966" xlink:href="#m51e6bbd4cf" y="153.034263"/>
     <use style="fill:#ff0000;stroke:#ff0000;" x="134.06131" xlink:href="#m51e6bbd4cf" y="216.579843"/>
     <use style="fill:#ff0000;stroke:#ff0000;" x="198.287651" xlink:href="#m51e6bbd4cf" y="166.445108"/>
     <use style="fill:#ff0000;stroke:#ff0000;" x="314.271352" xlink:href="#m51e6bbd4cf" y="250.858715"/>
     <use style="fill:#ff0000;stroke:#ff0000;" x="199.233385" xlink:href="#m51e6bbd4cf" y="179.66326"/>
     <use style="fill:#ff0000;stroke:#ff0000;" x="192.811507" xlink:href="#m51e6bbd4cf" y="176.229206"/>
     <use style="fill:#ff0000;stroke:#ff0000;" x="192.811507" xlink:href="#m51e6bbd4cf" y="176.229206"/>
     <use style="fill:#ff0000;stroke:#ff0000;" x="192.811507" xlink:href="#m51e6bbd4cf" y="176.229206"/>
     <use style="fill:#ff0000;stroke:#ff0000;" x="192.811507" xlink:href="#m51e6bbd4cf" y="176.229206"/>
     <use style="fill:#ff0000;stroke:#ff0000;" x="192.811507" xlink:href="#m51e6bbd4cf" y="176.229206"/>
     <use style="fill:#ff0000;stroke:#ff0000;" x="192.811507" xlink:href="#m51e6bbd4cf" y="176.229206"/>
     <use style="fill:#ff0000;stroke:#ff0000;" x="192.811507" xlink:href="#m51e6bbd4cf" y="176.229206"/>
     <use style="fill:#ff0000;stroke:#ff0000;" x="192.811507" xlink:href="#m51e6bbd4cf" y="176.229206"/>
     <use style="fill:#ff0000;stroke:#ff0000;" x="192.811507" xlink:href="#m51e6bbd4cf" y="176.229206"/>
     <use style="fill:#ff0000;stroke:#ff0000;" x="192.811507" xlink:href="#m51e6bbd4cf" y="176.229206"/>
     <use style="fill:#ff0000;stroke:#ff0000;" x="192.811507" xlink:href="#m51e6bbd4cf" y="176.229206"/>
     <use style="fill:#ff0000;stroke:#ff0000;" x="192.811507" xlink:href="#m51e6bbd4cf" y="176.229206"/>
     <use style="fill:#ff0000;stroke:#ff0000;" x="192.811507" xlink:href="#m51e6bbd4cf" y="176.229206"/>
     <use style="fill:#ff0000;stroke:#ff0000;" x="192.811507" xlink:href="#m51e6bbd4cf" y="176.229206"/>
     <use style="fill:#ff0000;stroke:#ff0000;" x="192.811507" xlink:href="#m51e6bbd4cf" y="176.229206"/>
     <use style="fill:#ff0000;stroke:#ff0000;" x="192.811507" xlink:href="#m51e6bbd4cf" y="176.229206"/>
     <use style="fill:#ff0000;stroke:#ff0000;" x="192.811507" xlink:href="#m51e6bbd4cf" y="176.229206"/>
     <use style="fill:#ff0000;stroke:#ff0000;" x="192.811507" xlink:href="#m51e6bbd4cf" y="176.229206"/>
     <use style="fill:#ff0000;stroke:#ff0000;" x="192.812473" xlink:href="#m51e6bbd4cf" y="176.229168"/>
    </g>
   </g>
   <g id="PathCollection_2">
    <defs>
     <path d="M 0 0.5 
C 0.132602 0.5 0.25979 0.447317 0.353553 0.353553 
C 0.447317 0.25979 0.5 0.132602 0.5 0 
C 0.5 -0.132602 0.447317 -0.25979 0.353553 -0.353553 
C 0.25979 -0.447317 0.132602 -0.5 0 -0.5 
C -0.132602 -0.5 -0.25979 -0.447317 -0.353553 -0.353553 
C -0.447317 -0.25979 -0.5 -0.132602 -0.5 0 
C -0.5 0.132602 -0.447317 0.25979 -0.353553 0.353553 
C -0.25979 0.447317 -0.132602 0.5 0 0.5 
z
" id="m08f08c02e5" style="stroke:#0000ff;"/>
    </defs>
    <g clip-path="url(#pf5614bef8e)">
     <use style="fill:#0000ff;stroke:#0000ff;" x="224.176504" xlink:href="#m08f08c02e5" y="165.182385"/>
     <use style="fill:#0000ff;stroke:#0000ff;" x="183.750694" xlink:href="#m08f08c02e5" y="146.293464"/>
     <use style="fill:#0000ff;stroke:#0000ff;" x="137.675357" xlink:href="#m08f08c02e5" y="191.590825"/>
    </g>
   </g>
   <g id="matplotlib.axis_1">
    <g id="xtick_1">
     <g id="line2d_1">
      <defs>
       <path d="M 0 0 
L 0 3.5 
" id="mf2f2d9aedd" style="stroke:#000000;stroke-width:0.8;"/>
      </defs>
      <g>
       <use style="stroke:#000000;stroke-width:0.8;" x="57.6" xlink:href="#mf2f2d9aedd" y="307.584"/>
      </g>
     </g>
     <g id="text_1">
      <!-- −1.00 -->
      <defs>
       <path d="M 10.59375 35.5 
L 73.1875 35.5 
L 73.1875 27.203125 
L 10.59375 27.203125 
z
" id="DejaVuSans-2212"/>
       <path d="M 12.40625 8.296875 
L 28.515625 8.296875 
L 28.515625 63.921875 
L 10.984375 60.40625 
L 10.984375 69.390625 
L 28.421875 72.90625 
L 38.28125 72.90625 
L 38.28125 8.296875 
L 54.390625 8.296875 
L 54.390625 0 
L 12.40625 0 
z
" id="DejaVuSans-31"/>
       <path d="M 10.6875 12.40625 
L 21 12.40625 
L 21 0 
L 10.6875 0 
z
" id="DejaVuSans-2e"/>
       <path d="M 31.78125 66.40625 
Q 24.171875 66.40625 20.328125 58.90625 
Q 16.5 51.421875 16.5 36.375 
Q 16.5 21.390625 20.328125 13.890625 
Q 24.171875 6.390625 31.78125 6.390625 
Q 39.453125 6.390625 43.28125 13.890625 
Q 47.125 21.390625 47.125 36.375 
Q 47.125 51.421875 43.28125 58.90625 
Q 39.453125 66.40625 31.78125 66.40625 
z
M 31.78125 74.21875 
Q 44.046875 74.21875 50.515625 64.515625 
Q 56.984375 54.828125 56.984375 36.375 
Q 56.984375 17.96875 50.515625 8.265625 
Q 44.046875 -1.421875 31.78125 -1.421875 
Q 19.53125 -1.421875 13.0625 8.265625 
Q 6.59375 17.96875 6.59375 36.375 
Q 6.59375 54.828125 13.0625 64.515625 
Q 19.53125 74.21875 31.78125 74.21875 
z
" id="DejaVuSans-30"/>
      </defs>
      <g transform="translate(42.277344 322.182437)scale(0.1 -0.1)">
       <use xlink:href="#DejaVuSans-2212"/>
       <use x="83.789062" xlink:href="#DejaVuSans-31"/>
       <use x="147.412109" xlink:href="#DejaVuSans-2e"/>
       <use x="179.199219" xlink:href="#DejaVuSans-30"/>
       <use x="242.822266" xlink:href="#DejaVuSans-30"/>
      </g>
     </g>
    </g>
    <g id="xtick_2">
     <g id="line2d_2">
      <g>
       <use style="stroke:#000000;stroke-width:0.8;" x="102.24" xlink:href="#mf2f2d9aedd" y="307.584"/>
      </g>
     </g>
     <g id="text_2">
      <!-- −0.75 -->
      <defs>
       <path d="M 8.203125 72.90625 
L 55.078125 72.90625 
L 55.078125 68.703125 
L 28.609375 0 
L 18.3125 0 
L 43.21875 64.59375 
L 8.203125 64.59375 
z
" id="DejaVuSans-37"/>
       <path d="M 10.796875 72.90625 
L 49.515625 72.90625 
L 49.515625 64.59375 
L 19.828125 64.59375 
L 19.828125 46.734375 
Q 21.96875 47.46875 24.109375 47.828125 
Q 26.265625 48.1875 28.421875 48.1875 
Q 40.625 48.1875 47.75 41.5 
Q 54.890625 34.8125 54.890625 23.390625 
Q 54.890625 11.625 47.5625 5.09375 
Q 40.234375 -1.421875 26.90625 -1.421875 
Q 22.3125 -1.421875 17.546875 -0.640625 
Q 12.796875 0.140625 7.71875 1.703125 
L 7.71875 11.625 
Q 12.109375 9.234375 16.796875 8.0625 
Q 21.484375 6.890625 26.703125 6.890625 
Q 35.15625 6.890625 40.078125 11.328125 
Q 45.015625 15.765625 45.015625 23.390625 
Q 45.015625 31 40.078125 35.4375 
Q 35.15625 39.890625 26.703125 39.890625 
Q 22.75 39.890625 18.8125 39.015625 
Q 14.890625 38.140625 10.796875 36.28125 
z
" id="DejaVuSans-35"/>
      </defs>
      <g transform="translate(86.917344 322.182437)scale(0.1 -0.1)">
       <use xlink:href="#DejaVuSans-2212"/>
       <use x="83.789062" xlink:href="#DejaVuSans-30"/>
       <use x="147.412109" xlink:href="#DejaVuSans-2e"/>
       <use x="179.199219" xlink:href="#DejaVuSans-37"/>
       <use x="242.822266" xlink:href="#DejaVuSans-35"/>
      </g>
     </g>
    </g>
    <g id="xtick_3">
     <g id="line2d_3">
      <g>
       <use style="stroke:#000000;stroke-width:0.8;" x="146.88" xlink:href="#mf2f2d9aedd" y="307.584"/>
      </g>
     </g>
     <g id="text_3">
      <!-- −0.50 -->
      <g transform="translate(131.557344 322.182437)scale(0.1 -0.1)">
       <use xlink:href="#DejaVuSans-2212"/>
       <use x="83.789062" xlink:href="#DejaVuSans-30"/>
       <use x="147.412109" xlink:href="#DejaVuSans-2e"/>
       <use x="179.199219" xlink:href="#DejaVuSans-35"/>
       <use x="242.822266" xlink:href="#DejaVuSans-30"/>
      </g>
     </g>
    </g>
    <g id="xtick_4">
     <g id="line2d_4">
      <g>
       <use style="stroke:#000000;stroke-width:0.8;" x="191.52" xlink:href="#mf2f2d9aedd" y="307.584"/>
      </g>
     </g>
     <g id="text_4">
      <!-- −0.25 -->
      <defs>
       <path d="M 19.1875 8.296875 
L 53.609375 8.296875 
L 53.609375 0 
L 7.328125 0 
L 7.328125 8.296875 
Q 12.9375 14.109375 22.625 23.890625 
Q 32.328125 33.6875 34.8125 36.53125 
Q 39.546875 41.84375 41.421875 45.53125 
Q 43.3125 49.21875 43.3125 52.78125 
Q 43.3125 58.59375 39.234375 62.25 
Q 35.15625 65.921875 28.609375 65.921875 
Q 23.96875 65.921875 18.8125 64.3125 
Q 13.671875 62.703125 7.8125 59.421875 
L 7.8125 69.390625 
Q 13.765625 71.78125 18.9375 73 
Q 24.125 74.21875 28.421875 74.21875 
Q 39.75 74.21875 46.484375 68.546875 
Q 53.21875 62.890625 53.21875 53.421875 
Q 53.21875 48.921875 51.53125 44.890625 
Q 49.859375 40.875 45.40625 35.40625 
Q 44.1875 33.984375 37.640625 27.21875 
Q 31.109375 20.453125 19.1875 8.296875 
z
" id="DejaVuSans-32"/>
      </defs>
      <g transform="translate(176.197344 322.182437)scale(0.1 -0.1)">
       <use xlink:href="#DejaVuSans-2212"/>
       <use x="83.789062" xlink:href="#DejaVuSans-30"/>
       <use x="147.412109" xlink:href="#DejaVuSans-2e"/>
       <use x="179.199219" xlink:href="#DejaVuSans-32"/>
       <use x="242.822266" xlink:href="#DejaVuSans-35"/>
      </g>
     </g>
    </g>
    <g id="xtick_5">
     <g id="line2d_5">
      <g>
       <use style="stroke:#000000;stroke-width:0.8;" x="236.16" xlink:href="#mf2f2d9aedd" y="307.584"/>
      </g>
     </g>
     <g id="text_5">
      <!-- 0.00 -->
      <g transform="translate(225.027187 322.182437)scale(0.1 -0.1)">
       <use xlink:href="#DejaVuSans-30"/>
       <use x="63.623047" xlink:href="#DejaVuSans-2e"/>
       <use x="95.410156" xlink:href="#DejaVuSans-30"/>
       <use x="159.033203" xlink:href="#DejaVuSans-30"/>
      </g>
     </g>
    </g>
    <g id="xtick_6">
     <g id="line2d_6">
      <g>
       <use style="stroke:#000000;stroke-width:0.8;" x="280.8" xlink:href="#mf2f2d9aedd" y="307.584"/>
      </g>
     </g>
     <g id="text_6">
      <!-- 0.25 -->
      <g transform="translate(269.667188 322.182437)scale(0.1 -0.1)">
       <use xlink:href="#DejaVuSans-30"/>
       <use x="63.623047" xlink:href="#DejaVuSans-2e"/>
       <use x="95.410156" xlink:href="#DejaVuSans-32"/>
       <use x="159.033203" xlink:href="#DejaVuSans-35"/>
      </g>
     </g>
    </g>
    <g id="xtick_7">
     <g id="line2d_7">
      <g>
       <use style="stroke:#000000;stroke-width:0.8;" x="325.44" xlink:href="#mf2f2d9aedd" y="307.584"/>
      </g>
     </g>
     <g id="text_7">
      <!-- 0.50 -->
      <g transform="translate(314.307187 322.182437)scale(0.1 -0.1)">
       <use xlink:href="#DejaVuSans-30"/>
       <use x="63.623047" xlink:href="#DejaVuSans-2e"/>
       <use x="95.410156" xlink:href="#DejaVuSans-35"/>
       <use x="159.033203" xlink:href="#DejaVuSans-30"/>
      </g>
     </g>
    </g>
    <g id="xtick_8">
     <g id="line2d_8">
      <g>
       <use style="stroke:#000000;stroke-width:0.8;" x="370.08" xlink:href="#mf2f2d9aedd" y="307.584"/>
      </g>
     </g>
     <g id="text_8">
      <!-- 0.75 -->
      <g transform="translate(358.947188 322.182437)scale(0.1 -0.1)">
       <use xlink:href="#DejaVuSans-30"/>
       <use x="63.623047" xlink:href="#DejaVuSans-2e"/>
       <use x="95.410156" xlink:href="#DejaVuSans-37"/>
       <use x="159.033203" xlink:href="#DejaVuSans-35"/>
      </g>
     </g>
    </g>
    <g id="xtick_9">
     <g id="line2d_9">
      <g>
       <use style="stroke:#000000;stroke-width:0.8;" x="414.72" xlink:href="#mf2f2d9aedd" y="307.584"/>
      </g>
     </g>
     <g id="text_9">
      <!-- 1.00 -->
      <g transform="translate(403.587188 322.182437)scale(0.1 -0.1)">
       <use xlink:href="#DejaVuSans-31"/>
       <use x="63.623047" xlink:href="#DejaVuSans-2e"/>
       <use x="95.410156" xlink:href="#DejaVuSans-30"/>
       <use x="159.033203" xlink:href="#DejaVuSans-30"/>
      </g>
     </g>
    </g>
   </g>
   <g id="matplotlib.axis_2">
    <g id="ytick_1">
     <g id="line2d_10">
      <defs>
       <path d="M 0 0 
L -3.5 0 
" id="md44c5b4c88" style="stroke:#000000;stroke-width:0.8;"/>
      </defs>
      <g>
       <use style="stroke:#000000;stroke-width:0.8;" x="57.6" xlink:href="#md44c5b4c88" y="307.584"/>
      </g>
     </g>
     <g id="text_10">
      <!-- −1.00 -->
      <g transform="translate(19.954687 311.383219)scale(0.1 -0.1)">
       <use xlink:href="#DejaVuSans-2212"/>
       <use x="83.789062" xlink:href="#DejaVuSans-31"/>
       <use x="147.412109" xlink:href="#DejaVuSans-2e"/>
       <use x="179.199219" xlink:href="#DejaVuSans-30"/>
       <use x="242.822266" xlink:href="#DejaVuSans-30"/>
      </g>
     </g>
    </g>
    <g id="ytick_2">
     <g id="line2d_11">
      <g>
       <use style="stroke:#000000;stroke-width:0.8;" x="57.6" xlink:href="#md44c5b4c88" y="274.32"/>
      </g>
     </g>
     <g id="text_11">
      <!-- −0.75 -->
      <g transform="translate(19.954687 278.119219)scale(0.1 -0.1)">
       <use xlink:href="#DejaVuSans-2212"/>
       <use x="83.789062" xlink:href="#DejaVuSans-30"/>
       <use x="147.412109" xlink:href="#DejaVuSans-2e"/>
       <use x="179.199219" xlink:href="#DejaVuSans-37"/>
       <use x="242.822266" xlink:href="#DejaVuSans-35"/>
      </g>
     </g>
    </g>
    <g id="ytick_3">
     <g id="line2d_12">
      <g>
       <use style="stroke:#000000;stroke-width:0.8;" x="57.6" xlink:href="#md44c5b4c88" y="241.056"/>
      </g>
     </g>
     <g id="text_12">
      <!-- −0.50 -->
      <g transform="translate(19.954687 244.855219)scale(0.1 -0.1)">
       <use xlink:href="#DejaVuSans-2212"/>
       <use x="83.789062" xlink:href="#DejaVuSans-30"/>
       <use x="147.412109" xlink:href="#DejaVuSans-2e"/>
       <use x="179.199219" xlink:href="#DejaVuSans-35"/>
       <use x="242.822266" xlink:href="#DejaVuSans-30"/>
      </g>
     </g>
    </g>
    <g id="ytick_4">
     <g id="line2d_13">
      <g>
       <use style="stroke:#000000;stroke-width:0.8;" x="57.6" xlink:href="#md44c5b4c88" y="207.792"/>
      </g>
     </g>
     <g id="text_13">
      <!-- −0.25 -->
      <g transform="translate(19.954687 211.591219)scale(0.1 -0.1)">
       <use xlink:href="#DejaVuSans-2212"/>
       <use x="83.789062" xlink:href="#DejaVuSans-30"/>
       <use x="147.412109" xlink:href="#DejaVuSans-2e"/>
       <use x="179.199219" xlink:href="#DejaVuSans-32"/>
       <use x="242.822266" xlink:href="#DejaVuSans-35"/>
      </g>
     </g>
    </g>
    <g id="ytick_5">
     <g id="line2d_14">
      <g>
       <use style="stroke:#000000;stroke-width:0.8;" x="57.6" xlink:href="#md44c5b4c88" y="174.528"/>
      </g>
     </g>
     <g id="text_14">
      <!-- 0.00 -->
      <g transform="translate(28.334375 178.327219)scale(0.1 -0.1)">
       <use xlink:href="#DejaVuSans-30"/>
       <use x="63.623047" xlink:href="#DejaVuSans-2e"/>
       <use x="95.410156" xlink:href="#DejaVuSans-30"/>
       <use x="159.033203" xlink:href="#DejaVuSans-30"/>
      </g>
     </g>
    </g>
    <g id="ytick_6">
     <g id="line2d_15">
      <g>
       <use style="stroke:#000000;stroke-width:0.8;" x="57.6" xlink:href="#md44c5b4c88" y="141.264"/>
      </g>
     </g>
     <g id="text_15">
      <!-- 0.25 -->
      <g transform="translate(28.334375 145.063219)scale(0.1 -0.1)">
       <use xlink:href="#DejaVuSans-30"/>
       <use x="63.623047" xlink:href="#DejaVuSans-2e"/>
       <use x="95.410156" xlink:href="#DejaVuSans-32"/>
       <use x="159.033203" xlink:href="#DejaVuSans-35"/>
      </g>
     </g>
    </g>
    <g id="ytick_7">
     <g id="line2d_16">
      <g>
       <use style="stroke:#000000;stroke-width:0.8;" x="57.6" xlink:href="#md44c5b4c88" y="108"/>
      </g>
     </g>
     <g id="text_16">
      <!-- 0.50 -->
      <g transform="translate(28.334375 111.799219)scale(0.1 -0.1)">
       <use xlink:href="#DejaVuSans-30"/>
       <use x="63.623047" xlink:href="#DejaVuSans-2e"/>
       <use x="95.410156" xlink:href="#DejaVuSans-35"/>
       <use x="159.033203" xlink:href="#DejaVuSans-30"/>
      </g>
     </g>
    </g>
    <g id="ytick_8">
     <g id="line2d_17">
      <g>
       <use style="stroke:#000000;stroke-width:0.8;" x="57.6" xlink:href="#md44c5b4c88" y="74.736"/>
      </g>
     </g>
     <g id="text_17">
      <!-- 0.75 -->
      <g transform="translate(28.334375 78.535219)scale(0.1 -0.1)">
       <use xlink:href="#DejaVuSans-30"/>
       <use x="63.623047" xlink:href="#DejaVuSans-2e"/>
       <use x="95.410156" xlink:href="#DejaVuSans-37"/>
       <use x="159.033203" xlink:href="#DejaVuSans-35"/>
      </g>
     </g>
    </g>
    <g id="ytick_9">
     <g id="line2d_18">
      <g>
       <use style="stroke:#000000;stroke-width:0.8;" x="57.6" xlink:href="#md44c5b4c88" y="41.472"/>
      </g>
     </g>
     <g id="text_18">
      <!-- 1.00 -->
      <g transform="translate(28.334375 45.271219)scale(0.1 -0.1)">
       <use xlink:href="#DejaVuSans-31"/>
       <use x="63.623047" xlink:href="#DejaVuSans-2e"/>
       <use x="95.410156" xlink:href="#DejaVuSans-30"/>
       <use x="159.033203" xlink:href="#DejaVuSans-30"/>
      </g>
     </g>
    </g>
   </g>
   <g id="patch_3">
    <path d="M 57.6 307.584 
L 57.6 41.472 
" style="fill:none;stroke:#000000;stroke-linecap:square;stroke-linejoin:miter;stroke-width:0.8;"/>
   </g>
   <g id="patch_4">
    <path d="M 414.72 307.584 
L 414.72 41.472 
" style="fill:none;stroke:#000000;stroke-linecap:square;stroke-linejoin:miter;stroke-width:0.8;"/>
   </g>
   <g id="patch_5">
    <path d="M 57.6 307.584 
L 414.72 307.584 
" style="fill:none;stroke:#000000;stroke-linecap:square;stroke-linejoin:miter;stroke-width:0.8;"/>
   </g>
   <g id="patch_6">
    <path d="M 57.6 41.472 
L 414.72 41.472 
" style="fill:none;stroke:#000000;stroke-linecap:square;stroke-linejoin:miter;stroke-width:0.8;"/>
   </g>
  </g>
 </g>
 <defs>
  <clipPath id="pf5614bef8e">
   <rect height="266.112" width="357.12" x="57.6" y="41.472"/>
  </clipPath>
 </defs>
</svg>
