<?xml version="1.0" encoding="utf-8" standalone="no"?>
<!DOCTYPE svg PUBLIC "-//W3C//DTD SVG 1.1//EN"
  "http://www.w3.org/Graphics/SVG/1.1/DTD/svg11.dtd">
<!-- Created with matplotlib (http://matplotlib.org/) -->
<svg height="345.6pt" version="1.1" viewBox="0 0 460.8 345.6" width="460.8pt" xmlns="http://www.w3.org/2000/svg" xmlns:xlink="http://www.w3.org/1999/xlink">
 <defs>
  <style type="text/css">
*{stroke-linecap:butt;stroke-linejoin:round;}
  </style>
 </defs>
 <g id="figure_1">
  <g id="patch_1">
   <path d="M 0 345.6 
L 460.8 345.6 
L 460.8 0 
L 0 0 
z
" style="fill:#ffffff;"/>
  </g>
  <g id="axes_1">
   <g id="patch_2">
    <path d="M 57.6 307.584 
L 414.72 307.584 
L 414.72 41.472 
L 57.6 41.472 
z
" style="fill:#ffffff;"/>
   </g>
   <g id="PathCollection_1">
    <defs>
     <path d="M 0 0.5 
C 0.132602 0.5 0.25979 0.447317 0.353553 0.353553 
C 0.447317 0.25979 0.5 0.132602 0.5 0 
C 0.5 -0.132602 0.447317 -0.25979 0.353553 -0.353553 
C 0.25979 -0.447317 0.132602 -0.5 0 -0.5 
C -0.132602 -0.5 -0.25979 -0.447317 -0.353553 -0.353553 
C -0.447317 -0.25979 -0.5 -0.132602 -0.5 0 
C -0.5 0.132602 -0.447317 0.25979 -0.353553 0.353553 
C -0.25979 0.447317 -0.132602 0.5 0 0.5 
z
" id="maf75dc7279" style="stroke:#ff0000;"/>
    </defs>
    <g clip-path="url(#pb88a5a28f5)">
     <use style="fill:#ff0000;stroke:#ff0000;" x="346.87136" xlink:href="#maf75dc7279" y="156.734723"/>
     <use style="fill:#ff0000;stroke:#ff0000;" x="329.024271" xlink:href="#maf75dc7279" y="154.177972"/>
     <use style="fill:#ff0000;stroke:#ff0000;" x="372.756875" xlink:href="#maf75dc7279" y="173.614101"/>
     <use style="fill:#ff0000;stroke:#ff0000;" x="379.255431" xlink:href="#maf75dc7279" y="182.809401"/>
     <use style="fill:#ff0000;stroke:#ff0000;" x="385.327649" xlink:href="#maf75dc7279" y="176.175163"/>
     <use style="fill:#ff0000;stroke:#ff0000;" x="239.725279" xlink:href="#maf75dc7279" y="181.929552"/>
     <use style="fill:#ff0000;stroke:#ff0000;" x="240.2235" xlink:href="#maf75dc7279" y="177.313148"/>
     <use style="fill:#ff0000;stroke:#ff0000;" x="209.974805" xlink:href="#maf75dc7279" y="186.766318"/>
     <use style="fill:#ff0000;stroke:#ff0000;" x="284.762364" xlink:href="#maf75dc7279" y="173.916205"/>
     <use style="fill:#ff0000;stroke:#ff0000;" x="349.966234" xlink:href="#maf75dc7279" y="170.725385"/>
     <use style="fill:#ff0000;stroke:#ff0000;" x="187.394185" xlink:href="#maf75dc7279" y="207.680611"/>
     <use style="fill:#ff0000;stroke:#ff0000;" x="270.353585" xlink:href="#maf75dc7279" y="178.962617"/>
     <use style="fill:#ff0000;stroke:#ff0000;" x="252.732301" xlink:href="#maf75dc7279" y="162.131918"/>
     <use style="fill:#ff0000;stroke:#ff0000;" x="344.708195" xlink:href="#maf75dc7279" y="160.310824"/>
     <use style="fill:#ff0000;stroke:#ff0000;" x="300.787803" xlink:href="#maf75dc7279" y="154.572538"/>
     <use style="fill:#ff0000;stroke:#ff0000;" x="372.423218" xlink:href="#maf75dc7279" y="191.694349"/>
     <use style="fill:#ff0000;stroke:#ff0000;" x="360.090389" xlink:href="#maf75dc7279" y="170.607391"/>
     <use style="fill:#ff0000;stroke:#ff0000;" x="341.564654" xlink:href="#maf75dc7279" y="158.263731"/>
     <use style="fill:#ff0000;stroke:#ff0000;" x="344.453194" xlink:href="#maf75dc7279" y="156.787292"/>
     <use style="fill:#ff0000;stroke:#ff0000;" x="344.453194" xlink:href="#maf75dc7279" y="156.787292"/>
     <use style="fill:#ff0000;stroke:#ff0000;" x="344.453194" xlink:href="#maf75dc7279" y="156.787292"/>
     <use style="fill:#ff0000;stroke:#ff0000;" x="344.453194" xlink:href="#maf75dc7279" y="156.787292"/>
     <use style="fill:#ff0000;stroke:#ff0000;" x="344.453194" xlink:href="#maf75dc7279" y="156.787292"/>
     <use style="fill:#ff0000;stroke:#ff0000;" x="344.453194" xlink:href="#maf75dc7279" y="156.787292"/>
     <use style="fill:#ff0000;stroke:#ff0000;" x="344.453194" xlink:href="#maf75dc7279" y="156.787292"/>
     <use style="fill:#ff0000;stroke:#ff0000;" x="344.453194" xlink:href="#maf75dc7279" y="156.787292"/>
     <use style="fill:#ff0000;stroke:#ff0000;" x="344.453194" xlink:href="#maf75dc7279" y="156.787292"/>
     <use style="fill:#ff0000;stroke:#ff0000;" x="344.453194" xlink:href="#maf75dc7279" y="156.787292"/>
     <use style="fill:#ff0000;stroke:#ff0000;" x="344.453194" xlink:href="#maf75dc7279" y="156.787292"/>
     <use style="fill:#ff0000;stroke:#ff0000;" x="344.453194" xlink:href="#maf75dc7279" y="156.787292"/>
     <use style="fill:#ff0000;stroke:#ff0000;" x="344.453194" xlink:href="#maf75dc7279" y="156.787292"/>
     <use style="fill:#ff0000;stroke:#ff0000;" x="344.453194" xlink:href="#maf75dc7279" y="156.787292"/>
     <use style="fill:#ff0000;stroke:#ff0000;" x="344.453194" xlink:href="#maf75dc7279" y="156.787292"/>
     <use style="fill:#ff0000;stroke:#ff0000;" x="344.453194" xlink:href="#maf75dc7279" y="156.787292"/>
     <use style="fill:#ff0000;stroke:#ff0000;" x="344.453194" xlink:href="#maf75dc7279" y="156.787292"/>
     <use style="fill:#ff0000;stroke:#ff0000;" x="344.453194" xlink:href="#maf75dc7279" y="156.787292"/>
     <use style="fill:#ff0000;stroke:#ff0000;" x="344.453194" xlink:href="#maf75dc7279" y="156.787292"/>
     <use style="fill:#ff0000;stroke:#ff0000;" x="344.453194" xlink:href="#maf75dc7279" y="156.787292"/>
     <use style="fill:#ff0000;stroke:#ff0000;" x="344.453194" xlink:href="#maf75dc7279" y="156.787292"/>
     <use style="fill:#ff0000;stroke:#ff0000;" x="344.453194" xlink:href="#maf75dc7279" y="156.787292"/>
     <use style="fill:#ff0000;stroke:#ff0000;" x="344.453194" xlink:href="#maf75dc7279" y="156.787292"/>
     <use style="fill:#ff0000;stroke:#ff0000;" x="344.453194" xlink:href="#maf75dc7279" y="156.787292"/>
     <use style="fill:#ff0000;stroke:#ff0000;" x="344.453194" xlink:href="#maf75dc7279" y="156.787292"/>
     <use style="fill:#ff0000;stroke:#ff0000;" x="344.453194" xlink:href="#maf75dc7279" y="156.787292"/>
     <use style="fill:#ff0000;stroke:#ff0000;" x="344.453194" xlink:href="#maf75dc7279" y="156.787292"/>
     <use style="fill:#ff0000;stroke:#ff0000;" x="344.453194" xlink:href="#maf75dc7279" y="156.787292"/>
     <use style="fill:#ff0000;stroke:#ff0000;" x="344.453194" xlink:href="#maf75dc7279" y="156.787292"/>
     <use style="fill:#ff0000;stroke:#ff0000;" x="344.453194" xlink:href="#maf75dc7279" y="156.787292"/>
     <use style="fill:#ff0000;stroke:#ff0000;" x="344.453194" xlink:href="#maf75dc7279" y="156.787292"/>
     <use style="fill:#ff0000;stroke:#ff0000;" x="344.453194" xlink:href="#maf75dc7279" y="156.787292"/>
     <use style="fill:#ff0000;stroke:#ff0000;" x="233.843406" xlink:href="#maf75dc7279" y="174.67551"/>
     <use style="fill:#ff0000;stroke:#ff0000;" x="199.783655" xlink:href="#maf75dc7279" y="176.348021"/>
     <use style="fill:#ff0000;stroke:#ff0000;" x="282.680558" xlink:href="#maf75dc7279" y="162.919092"/>
     <use style="fill:#ff0000;stroke:#ff0000;" x="292.934772" xlink:href="#maf75dc7279" y="169.144877"/>
     <use style="fill:#ff0000;stroke:#ff0000;" x="264.840391" xlink:href="#maf75dc7279" y="170.137538"/>
     <use style="fill:#ff0000;stroke:#ff0000;" x="148.88552" xlink:href="#maf75dc7279" y="216.878314"/>
     <use style="fill:#ff0000;stroke:#ff0000;" x="137.443818" xlink:href="#maf75dc7279" y="208.375069"/>
     <use style="fill:#ff0000;stroke:#ff0000;" x="141.869624" xlink:href="#maf75dc7279" y="215.521981"/>
     <use style="fill:#ff0000;stroke:#ff0000;" x="182.469602" xlink:href="#maf75dc7279" y="196.238902"/>
     <use style="fill:#ff0000;stroke:#ff0000;" x="208.634726" xlink:href="#maf75dc7279" y="186.987659"/>
     <use style="fill:#ff0000;stroke:#ff0000;" x="114.553248" xlink:href="#maf75dc7279" y="219.982507"/>
     <use style="fill:#ff0000;stroke:#ff0000;" x="161.147385" xlink:href="#maf75dc7279" y="205.078932"/>
     <use style="fill:#ff0000;stroke:#ff0000;" x="166.429865" xlink:href="#maf75dc7279" y="194.142601"/>
     <use style="fill:#ff0000;stroke:#ff0000;" x="261.576875" xlink:href="#maf75dc7279" y="167.509971"/>
     <use style="fill:#ff0000;stroke:#ff0000;" x="199.841628" xlink:href="#maf75dc7279" y="183.611162"/>
     <use style="fill:#ff0000;stroke:#ff0000;" x="266.83171" xlink:href="#maf75dc7279" y="186.227244"/>
     <use style="fill:#ff0000;stroke:#ff0000;" x="214.280265" xlink:href="#maf75dc7279" y="179.36265"/>
     <use style="fill:#ff0000;stroke:#ff0000;" x="172.709222" xlink:href="#maf75dc7279" y="178.689388"/>
     <use style="fill:#ff0000;stroke:#ff0000;" x="173.678172" xlink:href="#maf75dc7279" y="177.854588"/>
     <use style="fill:#ff0000;stroke:#ff0000;" x="173.678172" xlink:href="#maf75dc7279" y="177.854588"/>
     <use style="fill:#ff0000;stroke:#ff0000;" x="173.678172" xlink:href="#maf75dc7279" y="177.854588"/>
     <use style="fill:#ff0000;stroke:#ff0000;" x="173.678172" xlink:href="#maf75dc7279" y="177.854588"/>
     <use style="fill:#ff0000;stroke:#ff0000;" x="173.678172" xlink:href="#maf75dc7279" y="177.854588"/>
     <use style="fill:#ff0000;stroke:#ff0000;" x="173.678172" xlink:href="#maf75dc7279" y="177.854588"/>
     <use style="fill:#ff0000;stroke:#ff0000;" x="173.678172" xlink:href="#maf75dc7279" y="177.854588"/>
     <use style="fill:#ff0000;stroke:#ff0000;" x="173.678172" xlink:href="#maf75dc7279" y="177.854588"/>
     <use style="fill:#ff0000;stroke:#ff0000;" x="173.678172" xlink:href="#maf75dc7279" y="177.854588"/>
     <use style="fill:#ff0000;stroke:#ff0000;" x="173.678172" xlink:href="#maf75dc7279" y="177.854588"/>
     <use style="fill:#ff0000;stroke:#ff0000;" x="173.678172" xlink:href="#maf75dc7279" y="177.854588"/>
     <use style="fill:#ff0000;stroke:#ff0000;" x="173.678172" xlink:href="#maf75dc7279" y="177.854588"/>
     <use style="fill:#ff0000;stroke:#ff0000;" x="173.678172" xlink:href="#maf75dc7279" y="177.854588"/>
     <use style="fill:#ff0000;stroke:#ff0000;" x="173.678172" xlink:href="#maf75dc7279" y="177.854588"/>
     <use style="fill:#ff0000;stroke:#ff0000;" x="173.678172" xlink:href="#maf75dc7279" y="177.854588"/>
     <use style="fill:#ff0000;stroke:#ff0000;" x="173.678172" xlink:href="#maf75dc7279" y="177.854588"/>
     <use style="fill:#ff0000;stroke:#ff0000;" x="173.678172" xlink:href="#maf75dc7279" y="177.854588"/>
     <use style="fill:#ff0000;stroke:#ff0000;" x="173.678172" xlink:href="#maf75dc7279" y="177.854588"/>
     <use style="fill:#ff0000;stroke:#ff0000;" x="173.678172" xlink:href="#maf75dc7279" y="177.854588"/>
     <use style="fill:#ff0000;stroke:#ff0000;" x="173.678172" xlink:href="#maf75dc7279" y="177.854588"/>
     <use style="fill:#ff0000;stroke:#ff0000;" x="173.678172" xlink:href="#maf75dc7279" y="177.854588"/>
     <use style="fill:#ff0000;stroke:#ff0000;" x="173.678172" xlink:href="#maf75dc7279" y="177.854588"/>
     <use style="fill:#ff0000;stroke:#ff0000;" x="173.678172" xlink:href="#maf75dc7279" y="177.854588"/>
     <use style="fill:#ff0000;stroke:#ff0000;" x="173.678172" xlink:href="#maf75dc7279" y="177.854588"/>
     <use style="fill:#ff0000;stroke:#ff0000;" x="173.678172" xlink:href="#maf75dc7279" y="177.854588"/>
     <use style="fill:#ff0000;stroke:#ff0000;" x="173.678172" xlink:href="#maf75dc7279" y="177.854588"/>
     <use style="fill:#ff0000;stroke:#ff0000;" x="173.678172" xlink:href="#maf75dc7279" y="177.854588"/>
     <use style="fill:#ff0000;stroke:#ff0000;" x="173.678172" xlink:href="#maf75dc7279" y="177.854588"/>
     <use style="fill:#ff0000;stroke:#ff0000;" x="173.678172" xlink:href="#maf75dc7279" y="177.854588"/>
     <use style="fill:#ff0000;stroke:#ff0000;" x="173.678172" xlink:href="#maf75dc7279" y="177.854588"/>
     <use style="fill:#ff0000;stroke:#ff0000;" x="173.678172" xlink:href="#maf75dc7279" y="177.854588"/>
     <use style="fill:#ff0000;stroke:#ff0000;" x="173.678172" xlink:href="#maf75dc7279" y="177.854588"/>
     <use style="fill:#ff0000;stroke:#ff0000;" x="280.98522" xlink:href="#maf75dc7279" y="188.370068"/>
     <use style="fill:#ff0000;stroke:#ff0000;" x="211.954247" xlink:href="#maf75dc7279" y="208.134845"/>
     <use style="fill:#ff0000;stroke:#ff0000;" x="334.420247" xlink:href="#maf75dc7279" y="213.147552"/>
     <use style="fill:#ff0000;stroke:#ff0000;" x="357.03987" xlink:href="#maf75dc7279" y="221.042834"/>
     <use style="fill:#ff0000;stroke:#ff0000;" x="315.708201" xlink:href="#maf75dc7279" y="219.896951"/>
     <use style="fill:#ff0000;stroke:#ff0000;" x="144.522276" xlink:href="#maf75dc7279" y="222.177613"/>
     <use style="fill:#ff0000;stroke:#ff0000;" x="134.527121" xlink:href="#maf75dc7279" y="222.341431"/>
     <use style="fill:#ff0000;stroke:#ff0000;" x="138.41347" xlink:href="#maf75dc7279" y="216.683423"/>
     <use style="fill:#ff0000;stroke:#ff0000;" x="180.594592" xlink:href="#maf75dc7279" y="218.490352"/>
     <use style="fill:#ff0000;stroke:#ff0000;" x="230.822784" xlink:href="#maf75dc7279" y="219.403651"/>
     <use style="fill:#ff0000;stroke:#ff0000;" x="121.935573" xlink:href="#maf75dc7279" y="217.47711"/>
     <use style="fill:#ff0000;stroke:#ff0000;" x="161.80507" xlink:href="#maf75dc7279" y="223.455084"/>
     <use style="fill:#ff0000;stroke:#ff0000;" x="167.365971" xlink:href="#maf75dc7279" y="209.159443"/>
     <use style="fill:#ff0000;stroke:#ff0000;" x="308.455126" xlink:href="#maf75dc7279" y="187.862487"/>
     <use style="fill:#ff0000;stroke:#ff0000;" x="198.642451" xlink:href="#maf75dc7279" y="203.260632"/>
     <use style="fill:#ff0000;stroke:#ff0000;" x="330.609233" xlink:href="#maf75dc7279" y="223.37921"/>
     <use style="fill:#ff0000;stroke:#ff0000;" x="262.099111" xlink:href="#maf75dc7279" y="211.312574"/>
     <use style="fill:#ff0000;stroke:#ff0000;" x="184.278951" xlink:href="#maf75dc7279" y="229.74545"/>
     <use style="fill:#ff0000;stroke:#ff0000;" x="184.000169" xlink:href="#maf75dc7279" y="226.26277"/>
     <use style="fill:#ff0000;stroke:#ff0000;" x="184.000169" xlink:href="#maf75dc7279" y="226.26277"/>
     <use style="fill:#ff0000;stroke:#ff0000;" x="184.000169" xlink:href="#maf75dc7279" y="226.26277"/>
     <use style="fill:#ff0000;stroke:#ff0000;" x="184.000169" xlink:href="#maf75dc7279" y="226.26277"/>
     <use style="fill:#ff0000;stroke:#ff0000;" x="184.000169" xlink:href="#maf75dc7279" y="226.26277"/>
     <use style="fill:#ff0000;stroke:#ff0000;" x="184.000169" xlink:href="#maf75dc7279" y="226.26277"/>
     <use style="fill:#ff0000;stroke:#ff0000;" x="184.000169" xlink:href="#maf75dc7279" y="226.26277"/>
     <use style="fill:#ff0000;stroke:#ff0000;" x="184.000169" xlink:href="#maf75dc7279" y="226.26277"/>
     <use style="fill:#ff0000;stroke:#ff0000;" x="184.000169" xlink:href="#maf75dc7279" y="226.26277"/>
     <use style="fill:#ff0000;stroke:#ff0000;" x="184.000169" xlink:href="#maf75dc7279" y="226.26277"/>
     <use style="fill:#ff0000;stroke:#ff0000;" x="184.000169" xlink:href="#maf75dc7279" y="226.26277"/>
     <use style="fill:#ff0000;stroke:#ff0000;" x="184.000169" xlink:href="#maf75dc7279" y="226.26277"/>
     <use style="fill:#ff0000;stroke:#ff0000;" x="184.000169" xlink:href="#maf75dc7279" y="226.26277"/>
     <use style="fill:#ff0000;stroke:#ff0000;" x="184.000169" xlink:href="#maf75dc7279" y="226.26277"/>
     <use style="fill:#ff0000;stroke:#ff0000;" x="184.000169" xlink:href="#maf75dc7279" y="226.26277"/>
     <use style="fill:#ff0000;stroke:#ff0000;" x="184.000169" xlink:href="#maf75dc7279" y="226.26277"/>
     <use style="fill:#ff0000;stroke:#ff0000;" x="184.000169" xlink:href="#maf75dc7279" y="226.26277"/>
     <use style="fill:#ff0000;stroke:#ff0000;" x="184.000169" xlink:href="#maf75dc7279" y="226.26277"/>
     <use style="fill:#ff0000;stroke:#ff0000;" x="184.000169" xlink:href="#maf75dc7279" y="226.26277"/>
     <use style="fill:#ff0000;stroke:#ff0000;" x="184.000169" xlink:href="#maf75dc7279" y="226.26277"/>
     <use style="fill:#ff0000;stroke:#ff0000;" x="184.000169" xlink:href="#maf75dc7279" y="226.26277"/>
     <use style="fill:#ff0000;stroke:#ff0000;" x="184.000169" xlink:href="#maf75dc7279" y="226.26277"/>
     <use style="fill:#ff0000;stroke:#ff0000;" x="184.000169" xlink:href="#maf75dc7279" y="226.26277"/>
     <use style="fill:#ff0000;stroke:#ff0000;" x="184.000169" xlink:href="#maf75dc7279" y="226.26277"/>
     <use style="fill:#ff0000;stroke:#ff0000;" x="184.000169" xlink:href="#maf75dc7279" y="226.26277"/>
     <use style="fill:#ff0000;stroke:#ff0000;" x="184.000169" xlink:href="#maf75dc7279" y="226.26277"/>
     <use style="fill:#ff0000;stroke:#ff0000;" x="184.000169" xlink:href="#maf75dc7279" y="226.26277"/>
     <use style="fill:#ff0000;stroke:#ff0000;" x="184.000169" xlink:href="#maf75dc7279" y="226.26277"/>
     <use style="fill:#ff0000;stroke:#ff0000;" x="184.000169" xlink:href="#maf75dc7279" y="226.26277"/>
     <use style="fill:#ff0000;stroke:#ff0000;" x="184.000169" xlink:href="#maf75dc7279" y="226.26277"/>
     <use style="fill:#ff0000;stroke:#ff0000;" x="184.000169" xlink:href="#maf75dc7279" y="226.26277"/>
     <use style="fill:#ff0000;stroke:#ff0000;" x="184.000169" xlink:href="#maf75dc7279" y="226.26277"/>
     <use style="fill:#ff0000;stroke:#ff0000;" x="303.336143" xlink:href="#maf75dc7279" y="159.376187"/>
     <use style="fill:#ff0000;stroke:#ff0000;" x="257.129453" xlink:href="#maf75dc7279" y="166.558795"/>
     <use style="fill:#ff0000;stroke:#ff0000;" x="366.113432" xlink:href="#maf75dc7279" y="173.759952"/>
     <use style="fill:#ff0000;stroke:#ff0000;" x="394.408211" xlink:href="#maf75dc7279" y="187.140213"/>
     <use style="fill:#ff0000;stroke:#ff0000;" x="344.037513" xlink:href="#maf75dc7279" y="194.460889"/>
     <use style="fill:#ff0000;stroke:#ff0000;" x="162.614055" xlink:href="#maf75dc7279" y="224.328244"/>
     <use style="fill:#ff0000;stroke:#ff0000;" x="136.564482" xlink:href="#maf75dc7279" y="197.393485"/>
     <use style="fill:#ff0000;stroke:#ff0000;" x="127.408711" xlink:href="#maf75dc7279" y="218.750496"/>
     <use style="fill:#ff0000;stroke:#ff0000;" x="231.349883" xlink:href="#maf75dc7279" y="200.933578"/>
     <use style="fill:#ff0000;stroke:#ff0000;" x="284.059766" xlink:href="#maf75dc7279" y="204.621433"/>
     <use style="fill:#ff0000;stroke:#ff0000;" x="96.455665" xlink:href="#maf75dc7279" y="221.961469"/>
     <use style="fill:#ff0000;stroke:#ff0000;" x="197.611737" xlink:href="#maf75dc7279" y="208.280116"/>
     <use style="fill:#ff0000;stroke:#ff0000;" x="197.275757" xlink:href="#maf75dc7279" y="182.196513"/>
     <use style="fill:#ff0000;stroke:#ff0000;" x="333.792323" xlink:href="#maf75dc7279" y="162.384129"/>
     <use style="fill:#ff0000;stroke:#ff0000;" x="224.762391" xlink:href="#maf75dc7279" y="174.064276"/>
     <use style="fill:#ff0000;stroke:#ff0000;" x="370.476878" xlink:href="#maf75dc7279" y="223.132079"/>
     <use style="fill:#ff0000;stroke:#ff0000;" x="302.597901" xlink:href="#maf75dc7279" y="188.38225"/>
    </g>
   </g>
   <g id="PathCollection_2">
    <defs>
     <path d="M 0 0.5 
C 0.132602 0.5 0.25979 0.447317 0.353553 0.353553 
C 0.447317 0.25979 0.5 0.132602 0.5 0 
C 0.5 -0.132602 0.447317 -0.25979 0.353553 -0.353553 
C 0.25979 -0.447317 0.132602 -0.5 0 -0.5 
C -0.132602 -0.5 -0.25979 -0.447317 -0.353553 -0.353553 
C -0.447317 -0.25979 -0.5 -0.132602 -0.5 0 
C -0.5 0.132602 -0.447317 0.25979 -0.353553 0.353553 
C -0.25979 0.447317 -0.132602 0.5 0 0.5 
z
" id="mc55393520b" style="stroke:#0000ff;"/>
    </defs>
    <g clip-path="url(#pb88a5a28f5)">
     <use style="fill:#0000ff;stroke:#0000ff;" x="239.725279" xlink:href="#mc55393520b" y="181.929552"/>
     <use style="fill:#0000ff;stroke:#0000ff;" x="148.88552" xlink:href="#mc55393520b" y="216.878314"/>
     <use style="fill:#0000ff;stroke:#0000ff;" x="144.522276" xlink:href="#mc55393520b" y="222.177613"/>
     <use style="fill:#0000ff;stroke:#0000ff;" x="162.614055" xlink:href="#mc55393520b" y="224.328244"/>
    </g>
   </g>
   <g id="matplotlib.axis_1">
    <g id="xtick_1">
     <g id="line2d_1">
      <defs>
       <path d="M 0 0 
L 0 3.5 
" id="m4791367351" style="stroke:#000000;stroke-width:0.8;"/>
      </defs>
      <g>
       <use style="stroke:#000000;stroke-width:0.8;" x="57.6" xlink:href="#m4791367351" y="307.584"/>
      </g>
     </g>
     <g id="text_1">
      <!-- −1.00 -->
      <defs>
       <path d="M 10.59375 35.5 
L 73.1875 35.5 
L 73.1875 27.203125 
L 10.59375 27.203125 
z
" id="DejaVuSans-2212"/>
       <path d="M 12.40625 8.296875 
L 28.515625 8.296875 
L 28.515625 63.921875 
L 10.984375 60.40625 
L 10.984375 69.390625 
L 28.421875 72.90625 
L 38.28125 72.90625 
L 38.28125 8.296875 
L 54.390625 8.296875 
L 54.390625 0 
L 12.40625 0 
z
" id="DejaVuSans-31"/>
       <path d="M 10.6875 12.40625 
L 21 12.40625 
L 21 0 
L 10.6875 0 
z
" id="DejaVuSans-2e"/>
       <path d="M 31.78125 66.40625 
Q 24.171875 66.40625 20.328125 58.90625 
Q 16.5 51.421875 16.5 36.375 
Q 16.5 21.390625 20.328125 13.890625 
Q 24.171875 6.390625 31.78125 6.390625 
Q 39.453125 6.390625 43.28125 13.890625 
Q 47.125 21.390625 47.125 36.375 
Q 47.125 51.421875 43.28125 58.90625 
Q 39.453125 66.40625 31.78125 66.40625 
z
M 31.78125 74.21875 
Q 44.046875 74.21875 50.515625 64.515625 
Q 56.984375 54.828125 56.984375 36.375 
Q 56.984375 17.96875 50.515625 8.265625 
Q 44.046875 -1.421875 31.78125 -1.421875 
Q 19.53125 -1.421875 13.0625 8.265625 
Q 6.59375 17.96875 6.59375 36.375 
Q 6.59375 54.828125 13.0625 64.515625 
Q 19.53125 74.21875 31.78125 74.21875 
z
" id="DejaVuSans-30"/>
      </defs>
      <g transform="translate(42.277344 322.182437)scale(0.1 -0.1)">
       <use xlink:href="#DejaVuSans-2212"/>
       <use x="83.789062" xlink:href="#DejaVuSans-31"/>
       <use x="147.412109" xlink:href="#DejaVuSans-2e"/>
       <use x="179.199219" xlink:href="#DejaVuSans-30"/>
       <use x="242.822266" xlink:href="#DejaVuSans-30"/>
      </g>
     </g>
    </g>
    <g id="xtick_2">
     <g id="line2d_2">
      <g>
       <use style="stroke:#000000;stroke-width:0.8;" x="102.24" xlink:href="#m4791367351" y="307.584"/>
      </g>
     </g>
     <g id="text_2">
      <!-- −0.75 -->
      <defs>
       <path d="M 8.203125 72.90625 
L 55.078125 72.90625 
L 55.078125 68.703125 
L 28.609375 0 
L 18.3125 0 
L 43.21875 64.59375 
L 8.203125 64.59375 
z
" id="DejaVuSans-37"/>
       <path d="M 10.796875 72.90625 
L 49.515625 72.90625 
L 49.515625 64.59375 
L 19.828125 64.59375 
L 19.828125 46.734375 
Q 21.96875 47.46875 24.109375 47.828125 
Q 26.265625 48.1875 28.421875 48.1875 
Q 40.625 48.1875 47.75 41.5 
Q 54.890625 34.8125 54.890625 23.390625 
Q 54.890625 11.625 47.5625 5.09375 
Q 40.234375 -1.421875 26.90625 -1.421875 
Q 22.3125 -1.421875 17.546875 -0.640625 
Q 12.796875 0.140625 7.71875 1.703125 
L 7.71875 11.625 
Q 12.109375 9.234375 16.796875 8.0625 
Q 21.484375 6.890625 26.703125 6.890625 
Q 35.15625 6.890625 40.078125 11.328125 
Q 45.015625 15.765625 45.015625 23.390625 
Q 45.015625 31 40.078125 35.4375 
Q 35.15625 39.890625 26.703125 39.890625 
Q 22.75 39.890625 18.8125 39.015625 
Q 14.890625 38.140625 10.796875 36.28125 
z
" id="DejaVuSans-35"/>
      </defs>
      <g transform="translate(86.917344 322.182437)scale(0.1 -0.1)">
       <use xlink:href="#DejaVuSans-2212"/>
       <use x="83.789062" xlink:href="#DejaVuSans-30"/>
       <use x="147.412109" xlink:href="#DejaVuSans-2e"/>
       <use x="179.199219" xlink:href="#DejaVuSans-37"/>
       <use x="242.822266" xlink:href="#DejaVuSans-35"/>
      </g>
     </g>
    </g>
    <g id="xtick_3">
     <g id="line2d_3">
      <g>
       <use style="stroke:#000000;stroke-width:0.8;" x="146.88" xlink:href="#m4791367351" y="307.584"/>
      </g>
     </g>
     <g id="text_3">
      <!-- −0.50 -->
      <g transform="translate(131.557344 322.182437)scale(0.1 -0.1)">
       <use xlink:href="#DejaVuSans-2212"/>
       <use x="83.789062" xlink:href="#DejaVuSans-30"/>
       <use x="147.412109" xlink:href="#DejaVuSans-2e"/>
       <use x="179.199219" xlink:href="#DejaVuSans-35"/>
       <use x="242.822266" xlink:href="#DejaVuSans-30"/>
      </g>
     </g>
    </g>
    <g id="xtick_4">
     <g id="line2d_4">
      <g>
       <use style="stroke:#000000;stroke-width:0.8;" x="191.52" xlink:href="#m4791367351" y="307.584"/>
      </g>
     </g>
     <g id="text_4">
      <!-- −0.25 -->
      <defs>
       <path d="M 19.1875 8.296875 
L 53.609375 8.296875 
L 53.609375 0 
L 7.328125 0 
L 7.328125 8.296875 
Q 12.9375 14.109375 22.625 23.890625 
Q 32.328125 33.6875 34.8125 36.53125 
Q 39.546875 41.84375 41.421875 45.53125 
Q 43.3125 49.21875 43.3125 52.78125 
Q 43.3125 58.59375 39.234375 62.25 
Q 35.15625 65.921875 28.609375 65.921875 
Q 23.96875 65.921875 18.8125 64.3125 
Q 13.671875 62.703125 7.8125 59.421875 
L 7.8125 69.390625 
Q 13.765625 71.78125 18.9375 73 
Q 24.125 74.21875 28.421875 74.21875 
Q 39.75 74.21875 46.484375 68.546875 
Q 53.21875 62.890625 53.21875 53.421875 
Q 53.21875 48.921875 51.53125 44.890625 
Q 49.859375 40.875 45.40625 35.40625 
Q 44.1875 33.984375 37.640625 27.21875 
Q 31.109375 20.453125 19.1875 8.296875 
z
" id="DejaVuSans-32"/>
      </defs>
      <g transform="translate(176.197344 322.182437)scale(0.1 -0.1)">
       <use xlink:href="#DejaVuSans-2212"/>
       <use x="83.789062" xlink:href="#DejaVuSans-30"/>
       <use x="147.412109" xlink:href="#DejaVuSans-2e"/>
       <use x="179.199219" xlink:href="#DejaVuSans-32"/>
       <use x="242.822266" xlink:href="#DejaVuSans-35"/>
      </g>
     </g>
    </g>
    <g id="xtick_5">
     <g id="line2d_5">
      <g>
       <use style="stroke:#000000;stroke-width:0.8;" x="236.16" xlink:href="#m4791367351" y="307.584"/>
      </g>
     </g>
     <g id="text_5">
      <!-- 0.00 -->
      <g transform="translate(225.027187 322.182437)scale(0.1 -0.1)">
       <use xlink:href="#DejaVuSans-30"/>
       <use x="63.623047" xlink:href="#DejaVuSans-2e"/>
       <use x="95.410156" xlink:href="#DejaVuSans-30"/>
       <use x="159.033203" xlink:href="#DejaVuSans-30"/>
      </g>
     </g>
    </g>
    <g id="xtick_6">
     <g id="line2d_6">
      <g>
       <use style="stroke:#000000;stroke-width:0.8;" x="280.8" xlink:href="#m4791367351" y="307.584"/>
      </g>
     </g>
     <g id="text_6">
      <!-- 0.25 -->
      <g transform="translate(269.667188 322.182437)scale(0.1 -0.1)">
       <use xlink:href="#DejaVuSans-30"/>
       <use x="63.623047" xlink:href="#DejaVuSans-2e"/>
       <use x="95.410156" xlink:href="#DejaVuSans-32"/>
       <use x="159.033203" xlink:href="#DejaVuSans-35"/>
      </g>
     </g>
    </g>
    <g id="xtick_7">
     <g id="line2d_7">
      <g>
       <use style="stroke:#000000;stroke-width:0.8;" x="325.44" xlink:href="#m4791367351" y="307.584"/>
      </g>
     </g>
     <g id="text_7">
      <!-- 0.50 -->
      <g transform="translate(314.307187 322.182437)scale(0.1 -0.1)">
       <use xlink:href="#DejaVuSans-30"/>
       <use x="63.623047" xlink:href="#DejaVuSans-2e"/>
       <use x="95.410156" xlink:href="#DejaVuSans-35"/>
       <use x="159.033203" xlink:href="#DejaVuSans-30"/>
      </g>
     </g>
    </g>
    <g id="xtick_8">
     <g id="line2d_8">
      <g>
       <use style="stroke:#000000;stroke-width:0.8;" x="370.08" xlink:href="#m4791367351" y="307.584"/>
      </g>
     </g>
     <g id="text_8">
      <!-- 0.75 -->
      <g transform="translate(358.947188 322.182437)scale(0.1 -0.1)">
       <use xlink:href="#DejaVuSans-30"/>
       <use x="63.623047" xlink:href="#DejaVuSans-2e"/>
       <use x="95.410156" xlink:href="#DejaVuSans-37"/>
       <use x="159.033203" xlink:href="#DejaVuSans-35"/>
      </g>
     </g>
    </g>
    <g id="xtick_9">
     <g id="line2d_9">
      <g>
       <use style="stroke:#000000;stroke-width:0.8;" x="414.72" xlink:href="#m4791367351" y="307.584"/>
      </g>
     </g>
     <g id="text_9">
      <!-- 1.00 -->
      <g transform="translate(403.587188 322.182437)scale(0.1 -0.1)">
       <use xlink:href="#DejaVuSans-31"/>
       <use x="63.623047" xlink:href="#DejaVuSans-2e"/>
       <use x="95.410156" xlink:href="#DejaVuSans-30"/>
       <use x="159.033203" xlink:href="#DejaVuSans-30"/>
      </g>
     </g>
    </g>
   </g>
   <g id="matplotlib.axis_2">
    <g id="ytick_1">
     <g id="line2d_10">
      <defs>
       <path d="M 0 0 
L -3.5 0 
" id="m7e2a0216be" style="stroke:#000000;stroke-width:0.8;"/>
      </defs>
      <g>
       <use style="stroke:#000000;stroke-width:0.8;" x="57.6" xlink:href="#m7e2a0216be" y="307.584"/>
      </g>
     </g>
     <g id="text_10">
      <!-- −1.00 -->
      <g transform="translate(19.954687 311.383219)scale(0.1 -0.1)">
       <use xlink:href="#DejaVuSans-2212"/>
       <use x="83.789062" xlink:href="#DejaVuSans-31"/>
       <use x="147.412109" xlink:href="#DejaVuSans-2e"/>
       <use x="179.199219" xlink:href="#DejaVuSans-30"/>
       <use x="242.822266" xlink:href="#DejaVuSans-30"/>
      </g>
     </g>
    </g>
    <g id="ytick_2">
     <g id="line2d_11">
      <g>
       <use style="stroke:#000000;stroke-width:0.8;" x="57.6" xlink:href="#m7e2a0216be" y="274.32"/>
      </g>
     </g>
     <g id="text_11">
      <!-- −0.75 -->
      <g transform="translate(19.954687 278.119219)scale(0.1 -0.1)">
       <use xlink:href="#DejaVuSans-2212"/>
       <use x="83.789062" xlink:href="#DejaVuSans-30"/>
       <use x="147.412109" xlink:href="#DejaVuSans-2e"/>
       <use x="179.199219" xlink:href="#DejaVuSans-37"/>
       <use x="242.822266" xlink:href="#DejaVuSans-35"/>
      </g>
     </g>
    </g>
    <g id="ytick_3">
     <g id="line2d_12">
      <g>
       <use style="stroke:#000000;stroke-width:0.8;" x="57.6" xlink:href="#m7e2a0216be" y="241.056"/>
      </g>
     </g>
     <g id="text_12">
      <!-- −0.50 -->
      <g transform="translate(19.954687 244.855219)scale(0.1 -0.1)">
       <use xlink:href="#DejaVuSans-2212"/>
       <use x="83.789062" xlink:href="#DejaVuSans-30"/>
       <use x="147.412109" xlink:href="#DejaVuSans-2e"/>
       <use x="179.199219" xlink:href="#DejaVuSans-35"/>
       <use x="242.822266" xlink:href="#DejaVuSans-30"/>
      </g>
     </g>
    </g>
    <g id="ytick_4">
     <g id="line2d_13">
      <g>
       <use style="stroke:#000000;stroke-width:0.8;" x="57.6" xlink:href="#m7e2a0216be" y="207.792"/>
      </g>
     </g>
     <g id="text_13">
      <!-- −0.25 -->
      <g transform="translate(19.954687 211.591219)scale(0.1 -0.1)">
       <use xlink:href="#DejaVuSans-2212"/>
       <use x="83.789062" xlink:href="#DejaVuSans-30"/>
       <use x="147.412109" xlink:href="#DejaVuSans-2e"/>
       <use x="179.199219" xlink:href="#DejaVuSans-32"/>
       <use x="242.822266" xlink:href="#DejaVuSans-35"/>
      </g>
     </g>
    </g>
    <g id="ytick_5">
     <g id="line2d_14">
      <g>
       <use style="stroke:#000000;stroke-width:0.8;" x="57.6" xlink:href="#m7e2a0216be" y="174.528"/>
      </g>
     </g>
     <g id="text_14">
      <!-- 0.00 -->
      <g transform="translate(28.334375 178.327219)scale(0.1 -0.1)">
       <use xlink:href="#DejaVuSans-30"/>
       <use x="63.623047" xlink:href="#DejaVuSans-2e"/>
       <use x="95.410156" xlink:href="#DejaVuSans-30"/>
       <use x="159.033203" xlink:href="#DejaVuSans-30"/>
      </g>
     </g>
    </g>
    <g id="ytick_6">
     <g id="line2d_15">
      <g>
       <use style="stroke:#000000;stroke-width:0.8;" x="57.6" xlink:href="#m7e2a0216be" y="141.264"/>
      </g>
     </g>
     <g id="text_15">
      <!-- 0.25 -->
      <g transform="translate(28.334375 145.063219)scale(0.1 -0.1)">
       <use xlink:href="#DejaVuSans-30"/>
       <use x="63.623047" xlink:href="#DejaVuSans-2e"/>
       <use x="95.410156" xlink:href="#DejaVuSans-32"/>
       <use x="159.033203" xlink:href="#DejaVuSans-35"/>
      </g>
     </g>
    </g>
    <g id="ytick_7">
     <g id="line2d_16">
      <g>
       <use style="stroke:#000000;stroke-width:0.8;" x="57.6" xlink:href="#m7e2a0216be" y="108"/>
      </g>
     </g>
     <g id="text_16">
      <!-- 0.50 -->
      <g transform="translate(28.334375 111.799219)scale(0.1 -0.1)">
       <use xlink:href="#DejaVuSans-30"/>
       <use x="63.623047" xlink:href="#DejaVuSans-2e"/>
       <use x="95.410156" xlink:href="#DejaVuSans-35"/>
       <use x="159.033203" xlink:href="#DejaVuSans-30"/>
      </g>
     </g>
    </g>
    <g id="ytick_8">
     <g id="line2d_17">
      <g>
       <use style="stroke:#000000;stroke-width:0.8;" x="57.6" xlink:href="#m7e2a0216be" y="74.736"/>
      </g>
     </g>
     <g id="text_17">
      <!-- 0.75 -->
      <g transform="translate(28.334375 78.535219)scale(0.1 -0.1)">
       <use xlink:href="#DejaVuSans-30"/>
       <use x="63.623047" xlink:href="#DejaVuSans-2e"/>
       <use x="95.410156" xlink:href="#DejaVuSans-37"/>
       <use x="159.033203" xlink:href="#DejaVuSans-35"/>
      </g>
     </g>
    </g>
    <g id="ytick_9">
     <g id="line2d_18">
      <g>
       <use style="stroke:#000000;stroke-width:0.8;" x="57.6" xlink:href="#m7e2a0216be" y="41.472"/>
      </g>
     </g>
     <g id="text_18">
      <!-- 1.00 -->
      <g transform="translate(28.334375 45.271219)scale(0.1 -0.1)">
       <use xlink:href="#DejaVuSans-31"/>
       <use x="63.623047" xlink:href="#DejaVuSans-2e"/>
       <use x="95.410156" xlink:href="#DejaVuSans-30"/>
       <use x="159.033203" xlink:href="#DejaVuSans-30"/>
      </g>
     </g>
    </g>
   </g>
   <g id="patch_3">
    <path d="M 57.6 307.584 
L 57.6 41.472 
" style="fill:none;stroke:#000000;stroke-linecap:square;stroke-linejoin:miter;stroke-width:0.8;"/>
   </g>
   <g id="patch_4">
    <path d="M 414.72 307.584 
L 414.72 41.472 
" style="fill:none;stroke:#000000;stroke-linecap:square;stroke-linejoin:miter;stroke-width:0.8;"/>
   </g>
   <g id="patch_5">
    <path d="M 57.6 307.584 
L 414.72 307.584 
" style="fill:none;stroke:#000000;stroke-linecap:square;stroke-linejoin:miter;stroke-width:0.8;"/>
   </g>
   <g id="patch_6">
    <path d="M 57.6 41.472 
L 414.72 41.472 
" style="fill:none;stroke:#000000;stroke-linecap:square;stroke-linejoin:miter;stroke-width:0.8;"/>
   </g>
  </g>
 </g>
 <defs>
  <clipPath id="pb88a5a28f5">
   <rect height="266.112" width="357.12" x="57.6" y="41.472"/>
  </clipPath>
 </defs>
</svg>
